<?xml version="1.0" encoding="utf-8"?>
<!-- Generator: Adobe Illustrator 23.0.1, SVG Export Plug-In . SVG Version: 6.00 Build 0)  -->
<svg version="1.1" id="Camada_1" xmlns="http://www.w3.org/2000/svg" xmlns:xlink="http://www.w3.org/1999/xlink" x="0px" y="0px"
	 viewBox="0 0 256 259" style="enable-background:new 0 0 256 259;" xml:space="preserve">
<style type="text/css">
	.st0{fill:#FFFFFF;}
</style>
<g>
	<path class="st0" d="M127.8,0C60.4,0,5.2,52.4,0,119l68.7,28.7c5.8-4,12.9-6.4,20.4-6.4c0.7,0,1.4,0,2,0.1l30.6-44.7V96
		c0-26.9,21.7-48.8,48.4-48.8s48.4,21.9,48.4,48.8s-21.7,48.8-48.4,48.8c-0.4,0-0.7,0-1.1,0l-43.6,31.4c0,0.6,0,1.2,0,1.7
		c0,20.2-16.3,36.6-36.3,36.6c-17.6,0-32.3-12.7-35.6-29.4L4.4,164.7c15.2,54.3,64.7,94.1,123.4,94.1c70.8,0,128.2-57.9,128.2-129.4
		C256,57.9,198.6,0,127.8,0z M80.4,196.3l-15.7-6.6c2.8,5.9,7.6,10.8,14,13.5c13.9,5.8,29.8-0.8,35.6-14.8c2.8-6.8,2.8-14.2,0-21
		c-2.8-6.8-8-12.1-14.7-14.9c-6.7-2.8-13.8-2.7-20.1-0.3l16.3,6.8c10.2,4.3,15.1,16.1,10.8,26.5C102.3,195.8,90.6,200.6,80.4,196.3z
		 M202.3,96c0-17.9-14.5-32.5-32.2-32.5c-17.8,0-32.2,14.6-32.2,32.5s14.5,32.5,32.2,32.5C187.9,128.6,202.3,114,202.3,96z
		 M145.9,96c0-13.5,10.8-24.4,24.2-24.4c13.4,0,24.2,10.9,24.2,24.4s-10.8,24.4-24.2,24.4C156.8,120.4,145.9,109.5,145.9,96z"/>
</g>
</svg>
